#File written by RizomUV 2025.0.117.g4c8bab02. Compilation :Mar 23 2026,14:08:01
mtllib toRizomRM.mtl
#begin vertices
v 179.1158 -179.1158 179.1158
v 0 -179.1158 179.1158
v -179.1158 -179.1158 179.1158
v 179.1158 0 179.1158
v 0 0 179.1158
v -179.1158 0 179.1158
v 179.1158 179.1158 179.1158
v 0 179.1158 179.1158
v -179.1158 179.1158 179.1158
v 179.1158 179.1158 -179.1158
v 0 179.1158 -179.1158
v -179.1158 179.1158 -179.1158
v 179.1158 0 -179.1158
v 0 0 -179.1158
v -179.1158 0 -179.1158
v 179.1158 -179.1158 -179.1158
v 0 -179.1158 -179.1158
v -179.1158 -179.1158 -179.1158
v 179.1158 179.1158 0
v 179.1158 0 0
v 179.1158 -179.1158 0
v -179.1158 -179.1158 0
v -179.1158 0 0
v -179.1158 179.1158 0
v 0 -179.1158 0
v 0 179.1158 0
#end vertices

#begin 36 textures vertices 
vt 0.3625601 0.4322468 0
vt 0.5077588 0.486214 0
vt 0.627265 0.5585953 0
vt 0.3815156 0.3033747 0
vt 0.5340298 0.3318535 0
vt 0.6677614 0.3456289 0
vt 0.443786 0.1694851 0
vt 0.5355591 0.1793882 0
vt 0.6445537 0.1378383 0
vt 0.1566713 0.02292573 0
vt 0.2484693 0.2136448 0
vt 0.1544164 0.1147126 0
vt 0.3320739 0.3812983 0
vt 0.1884572 0.3704956 0
vt 0.05307175 0.3594708 0
vt 0.00390625 0.3473137 0
vt 0.2345878 0.5298733 0
vt 0.1386892 0.6090657 0
vt 0.2910421 0.105384 0
vt 0.2217215 0.2551423 0
vt 0.1738511 0.4158667 0
vt 0.8206228 0.5304138 0
vt 0.8251614 0.351434 0
vt 0.8234753 0.1676498 0
vt 0.3869296 0.5986792 0
vt 0.3809454 0.1242618 0
vt 0.4399078 0.2499145 0
vt 0.4008126 0.00390625 0
vt 0.06582629 0.1800822 0
vt 0.3592691 0.3040889 0
vt 0.9960938 0.351006 0
vt 0.99551 0.1742384 0
vt 0.3889126 0.7117117 0
vt 0.99551 0.5257511 0
vt 0.3927635 0.4918737 0
vt 0.3382649 0.4670679 0
#end 36 textures vertices 

#begin 26 normals 
vn 0.57735 -0.57735 0.57735
vn 0 -0.707107 0.707107
vn -0.57735 -0.57735 0.57735
vn 0.707107 0 0.707107
vn 0 0 1
vn -0.707107 0 0.707107
vn 0.57735 0.57735 0.57735
vn 0 0.707107 0.707107
vn -0.57735 0.57735 0.57735
vn 0.57735 0.57735 -0.57735
vn 0 0.707107 -0.707107
vn -0.57735 0.57735 -0.57735
vn 0.707107 0 -0.707107
vn 0 0 -1
vn -0.707107 0 -0.707107
vn 0.57735 -0.57735 -0.57735
vn 0 -0.707107 -0.707107
vn -0.57735 -0.57735 -0.57735
vn 0.707107 0.707107 0
vn 1 0 0
vn 0.707107 -0.707107 0
vn -0.707107 -0.707107 0
vn -1 0 0
vn -0.707107 0.707107 0
vn 0 -1 0
vn 0 1 0
#end 26 normals 

#begin 24 faces
usemtl Default
g PolyGroup1
f 4/4/4 5/5/5 2/2/2 1/1/1 
f 5/5/5 6/6/6 3/3/3 2/2/2 
f 7/7/7 8/8/8 5/5/5 4/4/4 
f 8/8/8 9/9/9 6/6/6 5/5/5 
f 13/13/13 14/14/14 11/11/11 10/30/10 
f 14/14/14 15/15/15 12/12/12 11/11/11 
f 16/36/16 17/17/17 14/14/14 13/13/13 
f 17/17/17 18/18/18 15/15/15 14/14/14 
f 4/4/4 20/20/20 19/19/19 7/7/7 
f 20/20/20 13/29/13 10/10/10 19/19/19 
f 1/1/1 21/21/21 20/20/20 4/4/4 
f 21/21/21 16/16/16 13/29/13 20/20/20 
f 6/6/6 23/23/23 22/22/22 3/3/3 
f 23/23/23 15/31/15 18/34/18 22/22/22 
f 9/9/9 24/24/24 23/23/23 6/6/6 
f 24/24/24 12/32/12 15/31/15 23/23/23 
f 1/1/1 2/2/2 25/25/25 21/35/21 
f 2/2/2 3/3/3 22/33/22 25/25/25 
f 21/35/21 25/25/25 17/17/17 16/36/16 
f 25/25/25 22/33/22 18/18/18 17/17/17 
f 9/9/9 8/8/8 26/26/26 24/28/24 
f 8/8/8 7/7/7 19/27/19 26/26/26 
f 24/28/24 26/26/26 11/11/11 12/12/12 
f 26/26/26 19/27/19 10/30/10 11/11/11 
#end 24 faces

#ZOMPROPERTIES_04{
#ZOMPROPERTIES_04 table {Mesh table {SymPlane table {Point vector3d 0 0 0 Normal vector3d 1 0 0 Threshold double 0.01 
#ZOMPROPERTIES_04 Enabled bool false EdgeID int -1 SymEdgeID int -1 UPos double 0.5 LocalMode bool false } RootGroup C
#ZOMPROPERTIES_04 SubMeshGroup {Children table {Tile_0_0 CSubMeshGroup {Children table {} BBoxUV box3d 0 0 0 0 0 0 BBo
#ZOMPROPERTIES_04 x3D box3d 0 0 0 0 0 0 Area3D double 0 AreaUV double 0 IsRoot bool false Properties table {Selected b
#ZOMPROPERTIES_04 ool false Box box3d 0 1 0 1 0 1 U int 0 V int 0 NU int 0 NV int 0 Pack table {BoxFrameEdit bool fals
#ZOMPROPERTIES_04 e Behavior string "Free" Locked bool false Scaling table {Optimization string "Fill" } } Hotspot tab
#ZOMPROPERTIES_04 le {} } IsTile bool true PolyIDs ints { 0 16 18 6 4 23 21 2 8 9 11 10 20 3 14 12 13 15 1 22 5 7 19 1
#ZOMPROPERTIES_04 7 } } } BBoxUV box3d 0 0 0 0 0 0 BBox3D box3d 0 0 0 0 0 0 Area3D double 0 AreaUV double 817670 IsRoo
#ZOMPROPERTIES_04 t bool true Properties table {Selected bool false Box box3d 0 1 0 1 0 1 U int 0 V int 0 NU int 1 NV 
#ZOMPROPERTIES_04 int 1 Pack table {Rotate table {Initial string "Automatic" Min double 0 Max double 90 Step double 0 
#ZOMPROPERTIES_04 } ResolutionDivisor int 0 MapResolution int 2048 UsePixelUnit bool true PaddingSize double 0.0078125
#ZOMPROPERTIES_04  MarginSize double 0.00390625 PaddingSizePx int 16 MarginSizePx int 8 Scaling table {TexelDensity do
#ZOMPROPERTIES_04 uble 1024 Mode int 2 Optimization string "Fill" } MaxMutations int 1 Strategy string "Efficient" Sid
#ZOMPROPERTIES_04 es string "Closed" } Hotspot table {} Tiling vector3d 1 1 1 TileRatioMode string "1:1" } IsTile bool
#ZOMPROPERTIES_04  false PolyIDs ints { } } Maps table {Pin CDataMap {PrimType string "Vertex" Size int 1 DefaultValue
#ZOMPROPERTIES_04  double 0 ScaleType string "Normalized" MergeMode string "Max" MinValue double 0 MaxValue double 1 D
#ZOMPROPERTIES_04 ata doubles { r 36 0 } } Density CDataMap {PrimType string "Polygon" Size int 1 DefaultValue double 
#ZOMPROPERTIES_04 1 ScaleType string "Log" MergeMode string "Average" MinValue double 0.1 MaxValue double 4 Data doubl
#ZOMPROPERTIES_04 es { r 24 1 } } Protect CDataMap {PrimType string "Vertex" Size int 1 DefaultValue double 0 ScaleTyp
#ZOMPROPERTIES_04 e string "Normalized" MergeMode string "Average" MinValue double -1 MaxValue double 1 Data doubles {
#ZOMPROPERTIES_04  r 36 0 } } } } }
#ZOMPROPERTIES_04}


#ZOMSCENE_01{
#ZOMSCENE_01 CScene {Settings table {AxisSystem table {UpVector string "y" } Unit string "cm" TexelDensityDisplay
#ZOMSCENE_01 Unit string "tx/cm" } Root CXForm {} }
#ZOMSCENE_01}

#begin 0 fatal error vertex (that RizomUV cannot handle)
#end 0 fatal error vertex (that RizomUV cannot handle)

#begin 0 error vertex
#end 0 error vertex
